:SAMPLES-PER-SECOND 30
:FRAME-RANGE 1-744
:FULLY-SPECIFIED
:DEGREES
70
root  -36.6196 39.888 -127.277 170.25 40.7788 -179.232
RightUpLeg  9.33862 -2.87076 0.308024
RightLeg  3.89199 7.78077 -2.46538
RightFoot  -5.59288 -0.250684 4.23217
RightToes  5.82063e-011 0 -3.6325e-017
Spine  11.0895 -0.143562 8.33376
Spine1  1.11901 1.25835 -1.26584
HEad  21.0191 -2.94191 -4.37048
LeftShoulder1  3.21917 -4.36274 -34.8938
LeftArm  11.7681 5.11491 -31.4364
LeftForeArm  8.00564 -3.34471 -17.52
LeftHand  -1.24892 -5.40724 13.6852
RightShoulder  4.59839 2.36286 66.886
RightArm  21.4357 3.27875 -5.26174
RightForeArm  8.46896 12.2388 11.4596
RightHand  0.556084 20.195 2.00422
LeftUpLeg  1.10201 11.3547 8.42927
LeftLeg  27.0096 2.4513 1.69408
LeftFoot  -10.3669 0.0777146 -1.82402
LeftToes  1.25507e-010 -3.78807e-010 5.71421e-011
71
root  -36.2133 39.9137 -127.991 170.074 41.0667 -179.451
RightUpLeg  11.125 -3.39796 -0.408759
RightLeg  3.01502 8.71453 -2.44388
RightFoot  -6.44261 -0.222313 4.17013
RightToes  5.82063e-011 0 -3.6325e-017
Spine  11.0328 -0.00835881 8.34339
Spine1  1.1381 1.47579 -2.04485
HEad  21.6912 -2.84388 -4.4017
LeftShoulder1  3.1756 -4.28392 -34.7502
LeftArm  12.2682 5.99794 -30.7459
LeftForeArm  7.55187 -3.8569 -17.4052
LeftHand  -1.26272 -5.44309 13.7879
RightShoulder  4.78569 2.60082 66.8884
RightArm  22.1705 3.48034 -5.1409
RightForeArm  7.716 12.9427 11.0631
RightHand  0.502618 20.2954 1.75441
LeftUpLeg  0.686654 8.91719 8.76677
LeftLeg  20.7716 3.47113 1.78114
LeftFoot  -9.21694 0.0910636 -1.92787
LeftToes  1.25507e-010 -3.78807e-010 5.71421e-011
72
root  -35.853 39.8998 -128.707 170.098 41.7137 -179.606
RightUpLeg  12.381 -3.75806 -1.03061
RightLeg  2.66109 9.78249 -2.5323
RightFoot  -7.39376 -0.190523 4.06747
RightToes  5.82063e-011 0 -3.6325e-017
Spine  11.1318 0.308773 8.22867
Spine1  0.896483 1.79542 -2.32886
HEad  22.2882 -2.6198 -4.74478
LeftShoulder1  3.14745 -4.15723 -35.0508
LeftArm  13.8751 6.86971 -29.8056
LeftForeArm  6.22372 -4.76213 -17.2657
LeftHand  -1.26293 -5.43399 13.8012
RightShoulder  4.88702 2.75559 66.6567
RightArm  22.6491 3.69356 -5.14082
RightForeArm  7.69349 13.3641 10.812
RightHand  0.526776 21.1568 1.78044
LeftUpLeg  0.516202 5.69694 9.30705
LeftLeg  13.8552 3.80143 1.58265
LeftFoot  -6.83015 0.148503 -2.72916
LeftToes  1.25507e-010 -3.78807e-010 5.71421e-011
73
root  -35.5388 39.8276 -129.468 170.3 42.6974 -179.537
RightUpLeg  13.264 -3.99244 -1.55
RightLeg  2.92524 11.2934 -2.63945
RightFoot  -8.79877 -0.162449 4.62279
RightToes  5.82063e-011 0 -3.6325e-017
Spine  11.2938 0.576958 8.39649
Spine1  0.635937 2.14626 -2.73795
HEad  22.5724 -2.04135 -4.97162
LeftShoulder1  3.09662 -4.02295 -35.1062
LeftArm  14.9234 8.01257 -29.0122
LeftForeArm  5.35857 -5.63303 -17.0323
LeftHand  -1.26022 -5.51427 13.6758
RightShoulder  5.12699 3.08612 66.4529
RightArm  22.7732 3.69242 -5.04767
RightForeArm  7.75538 13.4656 10.7385
RightHand  0.511707 20.9973 1.72961
LeftUpLeg  0.773732 4.98845 9.92717
LeftLeg  6.35001 -0.291064 2.42406
LeftFoot  -3.19358 0.346887 -4.6006
LeftToes  1.25507e-010 -3.78807e-010 5.71421e-011
74
root  -35.2596 39.7438 -130.269 170.501 43.9151 -179.361
RightUpLeg  14.2028 -4.09523 -2.0013
RightLeg  3.14046 12.572 -2.88865
RightFoot  -9.98764 -0.122034 4.58483
RightToes  5.82063e-011 0 -3.6325e-017
Spine  11.6488 0.835471 8.59279
Spine1  0.350686 2.49392 -3.17263
HEad  22.5355 -1.53279 -4.9806
LeftShoulder1  3.045 -3.88071 -35.1965
LeftArm  15.6413 9.33792 -28.2492
LeftForeArm  4.52352 -6.54036 -16.7226
LeftHand  -1.25201 -5.54622 13.5516
RightShoulder  5.33136 3.3797 66.1969
RightArm  23.2341 3.65094 -5.00029
RightForeArm  7.51549 13.5214 10.7402
RightHand  0.513785 20.9694 1.74121
LeftUpLeg  0.903886 5.64664 10.7269
LeftLeg  0.0360939 -7.51839 4.10398
LeftFoot  0.842086 0.70429 -6.64357
LeftToes  1.25507e-010 -3.78807e-010 5.71421e-011
75
root  -35.0258 39.5969 -131.134 170.909 45.4723 -179.029
RightUpLeg  14.571 -4.20508 -2.56653
RightLeg  4.26789 14.4434 -2.92132
RightFoot  -11.6035 -0.0672946 5.01698
RightToes  5.82063e-011 0 -3.6325e-017
Spine  11.9795 1.18431 9.00891
Spine1  0.0268098 2.95302 -3.53877
HEad  22.4031 -0.980397 -5.18617
LeftShoulder1  3.01199 -3.77738 -35.3248
LeftArm  16.097 10.5911 -27.5785
LeftForeArm  3.85525 -7.19843 -16.476
LeftHand  -1.24809 -5.63065 13.4118
RightShoulder  5.46068 3.57452 65.9744
RightArm  23.1677 3.67568 -5.06824
RightForeArm  7.88097 13.1965 10.9549
RightHand  0.479351 20.85 1.60131
LeftUpLeg  0.47679 5.20072 11.8441
LeftLeg  -4.45506 -15.1816 6.17304
LeftFoot  3.69102 1.05479 -8.15566
LeftToes  1.25507e-010 -3.78807e-010 5.71421e-011
76
root  -34.8352 39.4593 -132.014 171.39 47.3975 -178.638
RightUpLeg  14.8 -3.66413 -2.70923
RightLeg  5.29589 15.9181 -3.53446
RightFoot  -13.1584 0.00242665 5.78133
RightToes  5.82063e-011 0 -3.6325e-017
Spine  12.5372 1.59744 9.33902
Spine1  -0.275677 3.49425 -4.09164
HEad  22.3156 -0.383141 -5.14438
LeftShoulder1  2.96187 -3.6177 -35.5422
LeftArm  16.6496 11.6982 -26.9286
LeftForeArm  3.52128 -7.84736 -16.2072
LeftHand  -1.24367 -5.689 13.2986
RightShoulder  5.7023 3.90997 65.8027
RightArm  23.1843 3.55986 -5.21041
RightForeArm  6.08731 12.7681 11.3462
RightHand  0.294141 18.7673 0.913885
LeftUpLeg  -0.797375 5.1576 12.927
LeftLeg  -5.99158 -24.4828 8.12156
LeftFoot  4.80019 1.21371 -8.75368
LeftToes  1.25507e-010 -3.78807e-010 5.71421e-011
77
root  -34.704 39.3037 -132.918 172.157 49.6881 -178.201
RightUpLeg  14.5518 -2.767 -2.78408
RightLeg  6.44923 17.4602 -4.32555
RightFoot  -14.627 0.0895433 6.57781
RightToes  5.82063e-011 0 -3.6325e-017
Spine  13.1379 2.00221 9.75496
Spine1  -0.609789 4.13378 -5.10612
HEad  21.942 -0.0681874 -4.82261
LeftShoulder1  2.91961 -3.52877 -35.4681
LeftArm  18.6536 12.8144 -26.5047
LeftForeArm  1.50473 -9.04693 -15.7972
LeftHand  -1.19588 -5.63023 12.8689
RightShoulder  5.93474 4.20685 65.8377
RightArm  22.1602 3.59388 -5.3773
RightForeArm  7.29048 11.7829 11.8879
RightHand  0.309532 18.6495 0.995258
LeftUpLeg  -2.17259 5.33241 14.0463
LeftLeg  -5.66943 -33.0654 9.21396
LeftFoot  3.40535 1.38369 -10.8289
LeftToes  1.25507e-010 -3.78807e-010 5.71421e-011
78
root  -34.6619 39.1056 -133.874 172.814 52.1295 -177.828
RightUpLeg  14.0853 -0.449332 -2.75073
RightLeg  8.06862 17.6479 -4.93083
RightFoot  -16.1858 0.214697 7.6636
RightToes  5.82063e-011 0 -3.6325e-017
Spine  14.0274 2.34467 9.83694
Spine1  -0.943539 4.6577 -5.79494
HEad  21.4551 0.319047 -4.68264
LeftShoulder1  2.89282 -3.43683 -35.6274
LeftArm  18.6957 13.6958 -26.1628
LeftForeArm  1.79099 -9.59792 -15.4586
LeftHand  -1.20286 -5.80935 12.7444
RightShoulder  6.13954 4.49292 65.696
RightArm  21.0301 3.58817 -5.43104
RightForeArm  9.61115 10.9509 12.2174
RightHand  0.473219 20.0216 1.64741
LeftUpLeg  -3.56311 5.04214 14.6805
LeftLeg  -2.91397 -37.7385 8.77346
LeftFoot  3.89203 1.7594 -13.2866
LeftToes  1.25507e-010 -3.78807e-010 5.71421e-011
79
root  -34.6525 38.8984 -134.967 173.344 54.9474 -177.566
RightUpLeg  13.7826 3.31819 -2.93578
RightLeg  9.47819 16.8034 -5.06534
RightFoot  -17.5837 0.367344 8.91172
RightToes  5.82063e-011 0 -3.6325e-017
Spine  14.2163 2.65386 10.038
Spine1  -0.477821 5.24069 -6.84508
HEad  21.0286 0.740646 -4.46006
LeftShoulder1  2.88765 -3.41218 -35.6993
LeftArm  20.625 14.4378 -26.022
LeftForeArm  -0.103093 -10.5258 -15.109
LeftHand  -1.21612 -5.74824 12.9476
RightShoulder  6.35016 4.78295 65.5885
RightArm  20.897 3.37338 -5.51281
RightForeArm  9.80768 10.6429 12.3826
RightHand  0.5063 20.0454 1.79484
LeftUpLeg  -4.07585 2.93697 14.5896
LeftLeg  1.36698 -38.6213 7.21513
LeftFoot  5.64501 1.70926 -11.6458
LeftToes  1.25507e-010 -3.78807e-010 5.71421e-011
